<?xml version="1.0" encoding="UTF-8" standalone="no"?>
<!-- Created with Inkscape (http://www.inkscape.org/) -->

<svg
   width="37.683426mm"
   height="37.196926mm"
   viewBox="0 0 34.683426 37.196926"
   version="1.1"
   id="svg1"
   xml:space="preserve"
   sodipodi:docname="coboard.svg"
   inkscape:export-filename="../thumbnail.png"
   inkscape:export-xdpi="285.23962"
   inkscape:export-ydpi="285.23962"
   inkscape:version="1.3.2 (091e20ef0f, 2023-11-25, custom)"
   xmlns:inkscape="http://www.inkscape.org/namespaces/inkscape"
   xmlns:sodipodi="http://sodipodi.sourceforge.net/DTD/sodipodi-0.dtd"
   xmlns="http://www.w3.org/2000/svg"
   xmlns:svg="http://www.w3.org/2000/svg"><sodipodi:namedview
     id="namedview1"
     pagecolor="#ffffff"
     bordercolor="#000000"
     borderopacity="0.25"
     inkscape:showpageshadow="2"
     inkscape:pageopacity="0.0"
     inkscape:pagecheckerboard="0"
     inkscape:deskcolor="#d1d1d1"
     inkscape:document-units="mm"
     inkscape:zoom="5.7046605"
     inkscape:cx="71.257527"
     inkscape:cy="70.293403"
     inkscape:window-width="1277"
     inkscape:window-height="660"
     inkscape:window-x="488"
     inkscape:window-y="169"
     inkscape:window-maximized="0"
     inkscape:current-layer="svg1" /><defs
     id="defs1" /><g
     id="layer1"
     transform="translate(-44.106534,-11.353294)"><path
       style="fill:#33c3f0;fill-opacity:1;stroke:#000000;stroke-width:0.264583"
       d="m 67.753938,12.140893 3.878448,0.358339 c 0.968563,2.777538 0.504668,5.988173 -0.47276,7.814684 l -3.704355,-0.177383"
       id="path9" /><path
       id="path4"
       style="fill:#ffffff;stroke:#000000;stroke-width:0.264583"
       d="m 63.212987,20.308015 a 9.6570921,9.6570921 0 0 0 -9.191652,5.419508 9.6570921,9.6570921 0 0 0 1.410609,10.576753 9.6570921,9.6570921 0 0 0 10.290701,2.821171 l 6.362064,-1.003975 1.072455,5.854396 -1.719282,2.246777 m 0,0 A 18.466064,18.466064 0 0 1 50.346218,43.671933 18.466064,18.466064 0 0 1 45.614161,22.960292 18.466064,18.466064 0 0 1 63.505376,11.503031 l 3.656662,4.033902 -3.949051,4.771082" /><path
       id="path5"
       style="fill:#33c3f0;fill-opacity:1;stroke:#000000;stroke-width:0.264583"
       d="m 64.044479,17.47381 a 12.549588,12.549588 0 0 0 -12.368289,6.490806 12.549588,12.549588 0 0 0 1.295119,13.907832 12.549588,12.549588 0 0 0 13.354102,4.095497 l 4.188233,-0.05379 -2.316509,3.224038 m 0,0 A 16.148849,16.148849 0 0 1 50.647292,40.693472 16.148849,16.148849 0 0 1 48.252126,22.748675 16.148849,16.148849 0 0 1 64.021859,13.856654 l 0.02262,3.617156" /><path
       style="fill:#ffffff;stroke:#000000;stroke-width:0.264583"
       d="m 71.378177,46.271301 0.704478,-1.636427 -3.94502,0.524708 2.376013,-3.245427 -4.296141,0.08577 2.5461,-2.911285 -3.072019,0.04371 12.786242,-2.021755 z"
       id="path6" /><path
       style="fill:#33c3f0;fill-opacity:1;stroke:#000000;stroke-width:0.264583"
       d="m 74.530499,37.746096 c 0.969723,0.643119 1.601679,1.409835 1.614237,2.34643 l 2.333093,-2.981928 z"
       id="path7" /><path
       style="fill:#ffffff;stroke:#000000;stroke-width:0.264583"
       d="m 63.505376,11.503031 0.516482,2.353622 0.02262,3.617157 -0.831496,2.834205 4.020005,0.184027 0.861944,-2.815157 0.115032,-3.326168 -0.617925,-2.561583 z"
       id="path8" /><path
       style="fill:none;stroke:#000000;stroke-width:0.264583"
       d="m 65.548705,11.646082 0.724264,2.358034 -0.07587,3.593051 -0.974119,2.802861"
       id="path10" /></g></svg>
