<?xml version="1.0" encoding="utf-8"?><!-- Uploaded to: SVG Repo, www.svgrepo.com, Generator: SVG Repo Mixer Tools -->
<svg width="800px" height="800px" viewBox="0 0 100 100" xmlns="http://www.w3.org/2000/svg" xmlns:xlink="http://www.w3.org/1999/xlink" aria-hidden="true" role="img" class="iconify iconify--gis" preserveAspectRatio="xMidYMid meet"><path d="M33.162 19.463a3.5 3.5 0 0 0-3.111 1.974L9.34 64.239a3.5 3.5 0 0 0 1.626 4.674a3.5 3.5 0 0 0 4.676-1.625l19.453-40.203l35.412 9.361L84.182 78.13a3.5 3.5 0 0 0 4.418 2.234a3.5 3.5 0 0 0 2.234-4.416l-14.268-43.49a3.5 3.5 0 0 0-2.431-2.293l-40.04-10.586a3.5 3.5 0 0 0-.933-.115z" fill="#000000"></path></svg>