<?xml version="1.0" encoding="utf-8"?>
<svg width="800px" height="800px" viewBox="0 0 1024 1024" class="icon"  version="1.1" xmlns="http://www.w3.org/2000/svg"><path d="M308.224 168.813714v-33.938285c0-56.32 45.641143-101.888 101.888-101.888h203.776c56.32 0 101.888 45.641143 101.888 101.888v33.938285h237.714286a33.938286 33.938286 0 0 1 0 67.949715H70.509714a33.938286 33.938286 0 0 1 0-67.949715h237.714286z m67.949714 0h271.652572v-33.938285a33.938286 33.938286 0 0 0-33.938286-33.938286H410.112a33.938286 33.938286 0 0 0-33.938286 33.938286v33.938285z m407.186286 710.582857V304.786286a34.084571 34.084571 0 1 1 68.242286 0v605.915428a73.142857 73.142857 0 0 1-73.142857 73.142857H245.540571a73.142857 73.142857 0 0 1-73.142857-73.142857V304.64a33.938286 33.938286 0 0 1 67.949715 0v574.756571a36.571429 36.571429 0 0 0 36.571428 36.571429h469.869714a36.571429 36.571429 0 0 0 36.571429-36.571429zM376.173714 338.651429c18.724571 0 33.938286 15.213714 33.938286 33.938285v407.478857a33.938286 33.938286 0 0 1-67.876571 0V372.589714c0-18.724571 15.140571-33.938286 33.938285-33.938285zM512 338.651429c18.724571 0 33.938286 15.213714 33.938286 33.938285v407.478857a33.938286 33.938286 0 0 1-67.876572 0V372.589714c0-18.724571 15.213714-33.938286 33.938286-33.938285z m135.826286 0c18.797714 0 33.938286 15.213714 33.938285 33.938285v407.478857a33.938286 33.938286 0 0 1-67.876571 0V372.589714c0-18.724571 15.213714-33.938286 33.938286-33.938285z" fill="#000000" /></svg>